TITLE ""
FILE "LR_black_phrase_E_A10.mp3" MP3
  TRACK 01 AUDIO
    TITLE "LR_black_phrase_E_A10_001"
    INDEX 01 00:00:00
  TRACK 02 AUDIO
    TITLE "LR_black_phrase_E_A10_002"
    INDEX 01 00:00:14
  TRACK 03 AUDIO
    TITLE "LR_black_phrase_E_A10_003"
    INDEX 01 00:01:37
  TRACK 04 AUDIO
    TITLE "LR_black_phrase_E_A10_004"
    INDEX 01 00:01:67
  TRACK 05 AUDIO
    TITLE "LR_black_phrase_E_A10_005"
    INDEX 01 00:04:45
  TRACK 06 AUDIO
    TITLE "LR_black_phrase_E_A10_006"
    INDEX 01 00:05:25
  TRACK 07 AUDIO
    TITLE "LR_black_phrase_E_A10_007"
    INDEX 01 00:08:04
  TRACK 08 AUDIO
    TITLE "LR_black_phrase_E_A10_008"
    INDEX 01 00:09:07
  TRACK 09 AUDIO
    TITLE "LR_black_phrase_E_A10_009"
    INDEX 01 00:10:40
  TRACK 10 AUDIO
    TITLE "LR_black_phrase_E_A10_010"
    INDEX 01 00:10:69
  TRACK 11 AUDIO
    TITLE "LR_black_phrase_E_A10_011"
    INDEX 01 00:13:34
  TRACK 12 AUDIO
    TITLE "LR_black_phrase_E_A10_012"
    INDEX 01 00:14:12
  TRACK 13 AUDIO
    TITLE "LR_black_phrase_E_A10_013"
    INDEX 01 00:16:52
  TRACK 14 AUDIO
    TITLE "LR_black_phrase_E_A10_014"
    INDEX 01 00:17:54
  TRACK 15 AUDIO
    TITLE "LR_black_phrase_E_A10_015"
    INDEX 01 00:18:59
  TRACK 16 AUDIO
    TITLE "LR_black_phrase_E_A10_016"
    INDEX 01 00:19:12
  TRACK 17 AUDIO
    TITLE "LR_black_phrase_E_A10_017"
    INDEX 01 00:22:10
  TRACK 18 AUDIO
    TITLE "LR_black_phrase_E_A10_018"
    INDEX 01 00:22:65
  TRACK 19 AUDIO
    TITLE "LR_black_phrase_E_A10_019"
    INDEX 01 00:25:61
  TRACK 20 AUDIO
    TITLE "LR_black_phrase_E_A10_020"
    INDEX 01 00:26:63
  TRACK 21 AUDIO
    TITLE "LR_black_phrase_E_A10_021"
    INDEX 01 00:28:03
  TRACK 22 AUDIO
    TITLE "LR_black_phrase_E_A10_022"
    INDEX 01 00:28:24
  TRACK 23 AUDIO
    TITLE "LR_black_phrase_E_A10_023"
    INDEX 01 00:30:51
  TRACK 24 AUDIO
    TITLE "LR_black_phrase_E_A10_024"
    INDEX 01 00:31:23
  TRACK 25 AUDIO
    TITLE "LR_black_phrase_E_A10_025"
    INDEX 01 00:33:49
  TRACK 26 AUDIO
    TITLE "LR_black_phrase_E_A10_026"
    INDEX 01 00:34:44
  TRACK 27 AUDIO
    TITLE "LR_black_phrase_E_A10_027"
    INDEX 01 00:36:00
  TRACK 28 AUDIO
    TITLE "LR_black_phrase_E_A10_028"
    INDEX 01 00:36:20
  TRACK 29 AUDIO
    TITLE "LR_black_phrase_E_A10_029"
    INDEX 01 00:38:56
  TRACK 30 AUDIO
    TITLE "LR_black_phrase_E_A10_030"
    INDEX 01 00:39:24
  TRACK 31 AUDIO
    TITLE "LR_black_phrase_E_A10_031"
    INDEX 01 00:41:60
  TRACK 32 AUDIO
    TITLE "LR_black_phrase_E_A10_032"
    INDEX 01 00:42:56
  TRACK 33 AUDIO
    TITLE "LR_black_phrase_E_A10_033"
    INDEX 01 00:44:08
  TRACK 34 AUDIO
    TITLE "LR_black_phrase_E_A10_034"
    INDEX 01 00:44:29
  TRACK 35 AUDIO
    TITLE "LR_black_phrase_E_A10_035"
    INDEX 01 00:47:06
  TRACK 36 AUDIO
    TITLE "LR_black_phrase_E_A10_036"
    INDEX 01 00:47:55
  TRACK 37 AUDIO
    TITLE "LR_black_phrase_E_A10_037"
    INDEX 01 00:50:32
  TRACK 38 AUDIO
    TITLE "LR_black_phrase_E_A10_038"
    INDEX 01 00:51:35
  TRACK 39 AUDIO
    TITLE "LR_black_phrase_E_A10_039"
    INDEX 01 00:52:46
  TRACK 40 AUDIO
    TITLE "LR_black_phrase_E_A10_040"
    INDEX 01 00:53:03
  TRACK 41 AUDIO
    TITLE "LR_black_phrase_E_A10_041"
    INDEX 01 00:55:41
  TRACK 42 AUDIO
    TITLE "LR_black_phrase_E_A10_042"
    INDEX 01 00:56:25
  TRACK 43 AUDIO
    TITLE "LR_black_phrase_E_A10_043"
    INDEX 01 00:58:61
  TRACK 44 AUDIO
    TITLE "LR_black_phrase_E_A10_044"
    INDEX 01 00:59:68
  TRACK 45 AUDIO
    TITLE "LR_black_phrase_E_A10_045"
    INDEX 01 01:01:08
  TRACK 46 AUDIO
    TITLE "LR_black_phrase_E_A10_046"
    INDEX 01 01:01:37
  TRACK 47 AUDIO
    TITLE "LR_black_phrase_E_A10_047"
    INDEX 01 01:03:11
  TRACK 48 AUDIO
    TITLE "LR_black_phrase_E_A10_048"
    INDEX 01 01:03:68
  TRACK 49 AUDIO
    TITLE "LR_black_phrase_E_A10_049"
    INDEX 01 01:05:41
  TRACK 50 AUDIO
    TITLE "LR_black_phrase_E_A10_050"
    INDEX 01 01:06:48
  TRACK 51 AUDIO
    TITLE "LR_black_phrase_E_A10_051"
    INDEX 01 01:07:69
  TRACK 52 AUDIO
    TITLE "LR_black_phrase_E_A10_052"
    INDEX 01 01:08:24
  TRACK 53 AUDIO
    TITLE "LR_black_phrase_E_A10_053"
    INDEX 01 01:11:10
  TRACK 54 AUDIO
    TITLE "LR_black_phrase_E_A10_054"
    INDEX 01 01:11:65
  TRACK 55 AUDIO
    TITLE "LR_black_phrase_E_A10_055"
    INDEX 01 01:14:50
  TRACK 56 AUDIO
    TITLE "LR_black_phrase_E_A10_056"
    INDEX 01 01:15:53
  TRACK 57 AUDIO
    TITLE "LR_black_phrase_E_A10_057"
    INDEX 01 01:16:64
  TRACK 58 AUDIO
    TITLE "LR_black_phrase_E_A10_058"
    INDEX 01 01:17:13
  TRACK 59 AUDIO
    TITLE "LR_black_phrase_E_A10_059"
    INDEX 01 01:18:69
  TRACK 60 AUDIO
    TITLE "LR_black_phrase_E_A10_060"
    INDEX 01 01:19:41
  TRACK 61 AUDIO
    TITLE "LR_black_phrase_E_A10_061"
    INDEX 01 01:21:21
  TRACK 62 AUDIO
    TITLE "LR_black_phrase_E_A10_062"
    INDEX 01 01:22:18
  TRACK 63 AUDIO
    TITLE "LR_black_phrase_E_A10_063"
    INDEX 01 01:23:49
  TRACK 64 AUDIO
    TITLE "LR_black_phrase_E_A10_064"
    INDEX 01 01:23:70
  TRACK 65 AUDIO
    TITLE "LR_black_phrase_E_A10_065"
    INDEX 01 01:26:14
  TRACK 66 AUDIO
    TITLE "LR_black_phrase_E_A10_066"
    INDEX 01 01:26:63
  TRACK 67 AUDIO
    TITLE "LR_black_phrase_E_A10_067"
    INDEX 01 01:29:06
  TRACK 68 AUDIO
    TITLE "LR_black_phrase_E_A10_068"
    INDEX 01 01:30:06
  TRACK 69 AUDIO
    TITLE "LR_black_phrase_E_A10_069"
    INDEX 01 01:31:33
  TRACK 70 AUDIO
    TITLE "LR_black_phrase_E_A10_070"
    INDEX 01 01:31:52
  TRACK 71 AUDIO
    TITLE "LR_black_phrase_E_A10_071"
    INDEX 01 01:33:69
  TRACK 72 AUDIO
    TITLE "LR_black_phrase_E_A10_072"
    INDEX 01 01:34:41
  TRACK 73 AUDIO
    TITLE "LR_black_phrase_E_A10_073"
    INDEX 01 01:36:55
  TRACK 74 AUDIO
    TITLE "LR_black_phrase_E_A10_074"
    INDEX 01 01:37:57
  TRACK 75 AUDIO
    TITLE "LR_black_phrase_E_A10_075"
    INDEX 01 01:39:09
  TRACK 76 AUDIO
    TITLE "LR_black_phrase_E_A10_076"
    INDEX 01 01:39:38
  TRACK 77 AUDIO
    TITLE "LR_black_phrase_E_A10_077"
    INDEX 01 01:41:27
  TRACK 78 AUDIO
    TITLE "LR_black_phrase_E_A10_078"
    INDEX 01 01:42:07
  TRACK 79 AUDIO
    TITLE "LR_black_phrase_E_A10_079"
    INDEX 01 01:43:71
  TRACK 80 AUDIO
    TITLE "LR_black_phrase_E_A10_080"
    INDEX 01 01:45:03
  TRACK 81 AUDIO
    TITLE "LR_black_phrase_E_A10_081"
    INDEX 01 01:46:09
  TRACK 82 AUDIO
    TITLE "LR_black_phrase_E_A10_082"
    INDEX 01 01:46:38
  TRACK 83 AUDIO
    TITLE "LR_black_phrase_E_A10_083"
    INDEX 01 01:48:19
  TRACK 84 AUDIO
    TITLE "LR_black_phrase_E_A10_084"
    INDEX 01 01:48:74
  TRACK 85 AUDIO
    TITLE "LR_black_phrase_E_A10_085"
    INDEX 01 01:50:57
  TRACK 86 AUDIO
    TITLE "LR_black_phrase_E_A10_086"
    INDEX 01 01:51:63
  TRACK 87 AUDIO
    TITLE "LR_black_phrase_E_A10_087"
    INDEX 01 01:53:01
  TRACK 88 AUDIO
    TITLE "LR_black_phrase_E_A10_088"
    INDEX 01 01:53:32
  TRACK 89 AUDIO
    TITLE "LR_black_phrase_E_A10_089"
    INDEX 01 01:55:39
  TRACK 90 AUDIO
    TITLE "LR_black_phrase_E_A10_090"
    INDEX 01 01:56:17
  TRACK 91 AUDIO
    TITLE "LR_black_phrase_E_A10_091"
    INDEX 01 01:58:24
  TRACK 92 AUDIO
    TITLE "LR_black_phrase_E_A10_092"
    INDEX 01 01:59:23
  TRACK 93 AUDIO
    TITLE "LR_black_phrase_E_A10_093"
    INDEX 01 02:00:48
  TRACK 94 AUDIO
    TITLE "LR_black_phrase_E_A10_094"
    INDEX 01 02:00:70
  TRACK 95 AUDIO
    TITLE "LR_black_phrase_E_A10_095"
    INDEX 01 02:03:15
  TRACK 96 AUDIO
    TITLE "LR_black_phrase_E_A10_096"
    INDEX 01 02:03:60
  TRACK 97 AUDIO
    TITLE "LR_black_phrase_E_A10_097"
    INDEX 01 02:06:06
  TRACK 98 AUDIO
    TITLE "LR_black_phrase_E_A10_098"
    INDEX 01 02:07:05
  TRACK 99 AUDIO
    TITLE "LR_black_phrase_E_A10_099"
    INDEX 01 02:08:12
  TRACK 100 AUDIO
    TITLE "LR_black_phrase_E_A10_100"
    INDEX 01 02:08:32
  TRACK 101 AUDIO
    TITLE "LR_black_phrase_E_A10_101"
    INDEX 01 02:11:58
  TRACK 102 AUDIO
    TITLE "LR_black_phrase_E_A10_102"
    INDEX 01 02:12:32
  TRACK 103 AUDIO
    TITLE "LR_black_phrase_E_A10_103"
    INDEX 01 02:15:55
  TRACK 104 AUDIO
    TITLE "LR_black_phrase_E_A10_104"
    INDEX 01 02:16:63
  TRACK 105 AUDIO
    TITLE "LR_black_phrase_E_A10_105"
    INDEX 01 02:17:74
  TRACK 106 AUDIO
    TITLE "LR_black_phrase_E_A10_106"
    INDEX 01 02:18:20
  TRACK 107 AUDIO
    TITLE "LR_black_phrase_E_A10_107"
    INDEX 01 02:20:64
  TRACK 108 AUDIO
    TITLE "LR_black_phrase_E_A10_108"
    INDEX 01 02:21:34
  TRACK 109 AUDIO
    TITLE "LR_black_phrase_E_A10_109"
    INDEX 01 02:24:03
  TRACK 110 AUDIO
    TITLE "LR_black_phrase_E_A10_110"
    INDEX 01 02:25:05
  TRACK 111 AUDIO
    TITLE "LR_black_phrase_E_A10_111"
    INDEX 01 02:26:40
  TRACK 112 AUDIO
    TITLE "LR_black_phrase_E_A10_112"
    INDEX 01 02:26:63
  TRACK 113 AUDIO
    TITLE "LR_black_phrase_E_A10_113"
    INDEX 01 02:29:48
  TRACK 114 AUDIO
    TITLE "LR_black_phrase_E_A10_114"
    INDEX 01 02:30:20
  TRACK 115 AUDIO
    TITLE "LR_black_phrase_E_A10_115"
    INDEX 01 02:33:04
  TRACK 116 AUDIO
    TITLE "LR_black_phrase_E_A10_116"
    INDEX 01 02:34:10
  TRACK 117 AUDIO
    TITLE "LR_black_phrase_E_A10_117"
    INDEX 01 02:35:19
  TRACK 118 AUDIO
    TITLE "LR_black_phrase_E_A10_118"
    INDEX 01 02:35:50
  TRACK 119 AUDIO
    TITLE "LR_black_phrase_E_A10_119"
    INDEX 01 02:37:63
  TRACK 120 AUDIO
    TITLE "LR_black_phrase_E_A10_120"
    INDEX 01 02:38:45
  TRACK 121 AUDIO
    TITLE "LR_black_phrase_E_A10_121"
    INDEX 01 02:40:59
  TRACK 122 AUDIO
    TITLE "LR_black_phrase_E_A10_122"
    INDEX 01 02:41:65
  TRACK 123 AUDIO
    TITLE "LR_black_phrase_E_A10_123"
    INDEX 01 02:42:68
  TRACK 124 AUDIO
    TITLE "LR_black_phrase_E_A10_124"
    INDEX 01 02:43:22
  TRACK 125 AUDIO
    TITLE "LR_black_phrase_E_A10_125"
    INDEX 01 02:45:11
  TRACK 126 AUDIO
    TITLE "LR_black_phrase_E_A10_126"
    INDEX 01 02:45:64
  TRACK 127 AUDIO
    TITLE "LR_black_phrase_E_A10_127"
    INDEX 01 02:47:53
  TRACK 128 AUDIO
    TITLE "LR_black_phrase_E_A10_128"
    INDEX 01 02:48:51
  TRACK 129 AUDIO
    TITLE "LR_black_phrase_E_A10_129"
    INDEX 01 02:50:09
  TRACK 130 AUDIO
    TITLE "LR_black_phrase_E_A10_130"
    INDEX 01 02:50:32
  TRACK 131 AUDIO
    TITLE "LR_black_phrase_E_A10_131"
    INDEX 01 02:52:17
  TRACK 132 AUDIO
    TITLE "LR_black_phrase_E_A10_132"
    INDEX 01 02:52:62
  TRACK 133 AUDIO
    TITLE "LR_black_phrase_E_A10_133"
    INDEX 01 02:54:50
  TRACK 134 AUDIO
    TITLE "LR_black_phrase_E_A10_134"
    INDEX 01 02:55:45
  TRACK 135 AUDIO
    TITLE "LR_black_phrase_E_A10_135"
    INDEX 01 02:56:64
  TRACK 136 AUDIO
    TITLE "LR_black_phrase_E_A10_136"
    INDEX 01 02:57:11
  TRACK 137 AUDIO
    TITLE "LR_black_phrase_E_A10_137"
    INDEX 01 02:59:33
  TRACK 138 AUDIO
    TITLE "LR_black_phrase_E_A10_138"
    INDEX 01 03:00:05
  TRACK 139 AUDIO
    TITLE "LR_black_phrase_E_A10_139"
    INDEX 01 03:02:28
  TRACK 140 AUDIO
    TITLE "LR_black_phrase_E_A10_140"
    INDEX 01 03:03:25
  TRACK 141 AUDIO
    TITLE "LR_black_phrase_E_A10_141"
    INDEX 01 03:04:42
  TRACK 142 AUDIO
    TITLE "LR_black_phrase_E_A10_142"
    INDEX 01 03:04:66
  TRACK 143 AUDIO
    TITLE "LR_black_phrase_E_A10_143"
    INDEX 01 03:07:46
  TRACK 144 AUDIO
    TITLE "LR_black_phrase_E_A10_144"
    INDEX 01 03:08:16
  TRACK 145 AUDIO
    TITLE "LR_black_phrase_E_A10_145"
    INDEX 01 03:11:01
  TRACK 146 AUDIO
    TITLE "LR_black_phrase_E_A10_146"
    INDEX 01 03:12:01
  TRACK 147 AUDIO
    TITLE "LR_black_phrase_E_A10_147"
    INDEX 01 03:13:12
  TRACK 148 AUDIO
    TITLE "LR_black_phrase_E_A10_148"
    INDEX 01 03:13:43
  TRACK 149 AUDIO
    TITLE "LR_black_phrase_E_A10_149"
    INDEX 01 03:15:50
  TRACK 150 AUDIO
    TITLE "LR_black_phrase_E_A10_150"
    INDEX 01 03:16:30
  TRACK 151 AUDIO
    TITLE "LR_black_phrase_E_A10_151"
    INDEX 01 03:18:38
  TRACK 152 AUDIO
    TITLE "LR_black_phrase_E_A10_152"
    INDEX 01 03:19:44
  TRACK 153 AUDIO
    TITLE "LR_black_phrase_E_A10_153"
    INDEX 01 03:20:47
  TRACK 154 AUDIO
    TITLE "LR_black_phrase_E_A10_154"
    INDEX 01 03:21:01
  TRACK 155 AUDIO
    TITLE "LR_black_phrase_E_A10_155"
    INDEX 01 03:22:69
  TRACK 156 AUDIO
    TITLE "LR_black_phrase_E_A10_156"
    INDEX 01 03:23:49
  TRACK 157 AUDIO
    TITLE "LR_black_phrase_E_A10_157"
    INDEX 01 03:25:42
  TRACK 158 AUDIO
    TITLE "LR_black_phrase_E_A10_158"
    INDEX 01 03:26:48
  TRACK 159 AUDIO
    TITLE "LR_black_phrase_E_A10_159"
    INDEX 01 03:28:11
  TRACK 160 AUDIO
    TITLE "LR_black_phrase_E_A10_160"
    INDEX 01 03:28:41
  TRACK 161 AUDIO
    TITLE "LR_black_phrase_E_A10_161"
    INDEX 01 03:31:17
  TRACK 162 AUDIO
    TITLE "LR_black_phrase_E_A10_162"
    INDEX 01 03:31:72
  TRACK 163 AUDIO
    TITLE "LR_black_phrase_E_A10_163"
    INDEX 01 03:34:51
  TRACK 164 AUDIO
    TITLE "LR_black_phrase_E_A10_164"
    INDEX 01 03:35:54
  TRACK 165 AUDIO
    TITLE "LR_black_phrase_E_A10_165"
    INDEX 01 03:36:60
  TRACK 166 AUDIO
    TITLE "LR_black_phrase_E_A10_166"
    INDEX 01 03:37:06
  TRACK 167 AUDIO
    TITLE "LR_black_phrase_E_A10_167"
    INDEX 01 03:39:25
  TRACK 168 AUDIO
    TITLE "LR_black_phrase_E_A10_168"
    INDEX 01 03:40:09
  TRACK 169 AUDIO
    TITLE "LR_black_phrase_E_A10_169"
    INDEX 01 03:42:27
  TRACK 170 AUDIO
    TITLE "LR_black_phrase_E_A10_170"
    INDEX 01 03:43:36
  TRACK 171 AUDIO
    TITLE "LR_black_phrase_E_A10_171"
    INDEX 01 03:44:48
  TRACK 172 AUDIO
    TITLE "LR_black_phrase_E_A10_172"
    INDEX 01 03:44:69
  TRACK 173 AUDIO
    TITLE "LR_black_phrase_E_A10_173"
    INDEX 01 03:46:60
  TRACK 174 AUDIO
    TITLE "LR_black_phrase_E_A10_174"
    INDEX 01 03:47:50
  TRACK 175 AUDIO
    TITLE "LR_black_phrase_E_A10_175"
    INDEX 01 03:49:47
  TRACK 176 AUDIO
    TITLE "LR_black_phrase_E_A10_176"
    INDEX 01 03:50:54
  TRACK 177 AUDIO
    TITLE "LR_black_phrase_E_A10_177"
    INDEX 01 03:51:59
  TRACK 178 AUDIO
    TITLE "LR_black_phrase_E_A10_178"
    INDEX 01 03:52:04
  TRACK 179 AUDIO
    TITLE "LR_black_phrase_E_A10_179"
    INDEX 01 03:53:74
  TRACK 180 AUDIO
    TITLE "LR_black_phrase_E_A10_180"
    INDEX 01 03:54:44
  TRACK 181 AUDIO
    TITLE "LR_black_phrase_E_A10_181"
    INDEX 01 03:56:39
